<svg width="20" height="20" viewBox="0 0 20 20" fill="none" xmlns="http://www.w3.org/2000/svg">
<path d="M13.4551 4.66211C13.6358 4.67051 13.7489 4.70271 13.8271 4.75391C15.9681 6.29505 16.917 8.96574 16.3262 11.5059C15.2486 11.0028 14.2561 10.9136 13.2959 11.1523C12.1995 11.425 11.202 12.1107 10.2139 12.9307L8.05371 14.7178C8.01853 14.7469 7.98821 14.7802 7.96289 14.8164C7.68044 15.0124 7.32052 15.154 6.95215 15.1982C6.57852 15.2431 6.23221 15.1859 5.95898 15.0264L5.84668 14.9521C3.82717 13.4279 3.10133 10.7544 3.70508 8.31445L4.01172 8.45215L4.01465 8.4541C5.25304 9.00184 6.42044 8.84962 7.45996 8.39844C8.47991 7.95571 9.40254 7.21426 10.1904 6.55078L10.1953 6.54688L11.6904 5.25879L11.3643 4.87988L11.6914 5.25879L11.6992 5.25195C12.0222 4.96125 12.4193 4.78404 12.8887 4.6709C12.9828 4.6693 13.0785 4.66693 13.1602 4.66406C13.2687 4.66025 13.365 4.65794 13.4551 4.66211Z" fill="#434343" stroke="#434343" stroke-linejoin="round"/>
<path d="M14.251 13.1504C14.6816 13.154 15.1067 13.2687 15.5303 13.4678C14.1766 15.5931 11.7309 16.7059 9.30273 16.4443C9.60336 16.2358 9.87993 16.0066 10.1523 15.7705C10.779 15.2274 11.6742 14.456 12.4805 13.8916C12.8856 13.608 13.1614 13.4454 13.416 13.3418C13.657 13.2438 13.9009 13.1889 14.251 13.1504Z" fill="#434343" stroke="#434343" stroke-linejoin="round"/>
<path d="M4.63086 6.39648C5.9415 4.42374 8.20048 3.33976 10.5459 3.52051C10.3615 3.65491 10.1805 3.80086 10.0039 3.96191C9.11907 4.72035 8.31614 5.44223 7.35059 6.08594L7.34766 6.08789C6.75979 6.48612 6.25042 6.65867 5.77051 6.66699C5.41338 6.67315 5.04061 6.58822 4.63086 6.39648Z" fill="#434343" stroke="#434343" stroke-linejoin="round"/>
</svg>
